
        <svg xmlns="http://www.w3.org/2000/svg" xmlns:xlink="http://www.w3.org/1999/xlink" version="1.1" width="3140.4954673339203" 
        height="3188.9019829975296" viewBox="0 0 3140.4954673339203 3188.9019829975296">
			
			<g transform="scale(9.445099149876452) translate(10, 10)">
				<defs id="SvgjsDefs1013"></defs><g id="SvgjsG1014" featureKey="rootContainer" transform="matrix(1.6798520286591943,0,0,1.6798520286591943,0.0005855650397463423,0.0002898575945924194)" fill="#f2fcfc"><path xmlns="http://www.w3.org/2000/svg" d="M17.914 148.907zM22.657 154.94a90.586 90.586 0 0 0 5.861 6.251c6.914 6.805 15.159 12.525 24.004 16.851 3.259 1.526 6.265 3.107 9.787 4.468.88.338 1.779.7 2.724 1.026.953.302 1.941.604 2.974.903 1.027.321 2.122.549 3.267.786 1.146.23 2.336.493 3.614.624a91.24 91.24 0 0 1-18.434-5.99 93.833 93.833 0 0 1-16.873-9.842c-10.548-7.727-19.57-17.648-26.16-28.989-.272-.339-.685-.985-1.18-1.808l-.796-1.348-.803-1.551c-.534-1.076-1.149-2.168-1.62-3.226a71.281 71.281 0 0 0-1.326-2.748c2.048 5.101 4.412 9.563 7.059 13.806a93.473 93.473 0 0 0 3.869 5.697c-.192-.259-.392-.511-.583-.771a95.012 95.012 0 0 0 4.6 5.841l.016.02zM18.039 149.078l-.125-.17.125.17zM1.335 106.042l-.483-3.875c.256 2.365.553 5.008 1.096 7.654l-.327-1.879a23.961 23.961 0 0 1-.286-1.9zM85.812 185.575c6.652.673 13.628.472 20.461-.609 6.837-1.077 13.524-2.987 19.741-5.449-11.45 4.503-23.602 6.506-35.49 6.171-1.591-.025-3.159 0-4.712-.113z"></path><path xmlns="http://www.w3.org/2000/svg" d="M46.426 171.967l-.259-.165c.087.055.172.111.259.165zM46.167 171.802zM43.653 170.135zM56.077 177.284A83.837 83.837 0 0 0 73.2 183.1c-9.688-2.21-18.805-6.109-26.774-11.133 3.06 1.947 6.277 3.749 9.651 5.317zM177.002 107.094c.098-1.58.296-3.238.346-4.027.594-5.071.77-9.401.745-13.745-.11-.783-.425-2.25-.55-3.918-.153-1.672-.378-3.309-.568-4.924-.289-1.601-.538-3.186-.854-4.74 2.275 11.617 2.237 23.279.144 34.282a94.97 94.97 0 0 1 .737-2.928z"></path><path xmlns="http://www.w3.org/2000/svg" d="M.887 83.482c.848-6.9 2.653-13.626 4.37-18.107l-.695 3.28c.429-.961 1.122-3.194 2.067-5.557l.682-1.802.753-1.747c.5-1.131.92-2.203 1.363-3.025-.303.771-.595 1.602-.947 2.436-.345.837-.732 1.687-1.101 2.542l1.514-3.409A111.863 111.863 0 0 0 4.954 69.8c-1.133 4.352-2.029 8.926-2.511 13.032-.14 1.024-.189 2.024-.28 2.978-.067.954-.183 1.864-.192 2.724-.042 1.719-.1 3.224-.071 4.428.105 2.409.25 3.61.459 2.939.411-1.333.403-8.188 1.837-16.767.767-4.276 1.868-8.966 3.362-13.561 1.483-4.599 3.427-9.058 5.44-12.992l-.592 1.292-.545 1.331-1.116 2.691-1.024 2.78-.521 1.402c-.153.476-.308.954-.461 1.434-1.32 3.807-2.307 7.816-3.167 11.857l-.559 3.052c-.205 1.014-.292 2.046-.444 3.067-.318 2.041-.434 4.097-.611 6.129-.199 4.074-.239 8.098.13 11.946-.015-.914-.03-1.726-.017-2.512l.115-2.355c.048-.809.039-1.667.115-2.65.07-.983.134-2.091.19-3.402.391-6.608 1.572-13.15 3.408-19.481 1.75-6.358 3.814-11.957 6.889-17.03l.801-1.526c.542-1.024.993-2.034 1.566-3.064.653-1.13 1.278-1.976 1.784-2.751.521-.767.963-1.441 1.469-2.095l3.682-5.082c.075-.009-.022.185-.2.473a28.962 28.962 0 0 1 1.959-2.49c.755-.875 1.488-1.803 2.109-2.569.146-.007.288-.011.623-.251 8.65-9.197 19.295-16.692 31.291-21.417l2.667-1.039 2.7-.899 1.343-.448 1.36-.38 2.71-.753c1.55-.373 3.12-.751 4.721-1.091l2.437-.426c.819-.141 1.642-.3 2.484-.378 1.674-.201 3.134-.625 3.921-.729 4.369-.249 8.73-.199 13.849.216.397.007 1.015.043 1.732.082.717.041 1.537.061 2.332.134.932.21 1.927.418 2.971.621 6.369.988 12.527 2.754 18.386 5.103l-.007-.028 2.244.894 2.29 1.058c1.571.684 3.11 1.559 4.7 2.383.798.407 1.554.904 2.338 1.354.77.474 1.576.894 2.32 1.412 1.508 1.002 3.037 1.961 4.446 3.032a99.912 99.912 0 0 1 6.6 5.198c.046.042.094.081.14.122l.042.038 1.457 1.322 1.394 1.391 1.395 1.392c.462.467.89.967 1.337 1.449-.216-.35-.208-.491-.2-.63-.689-.66-1.504-1.441-2.309-2.21 1.343 1.222 2.515 2.327 3.477 3.229.371.474.776.94 1.16 1.449l1.186 1.566 1.261 1.629 1.255 1.752c2.226 2.838 4.191 5.874 6.057 8.97.864 1.588 1.817 3.131 2.586 4.774l1.213 2.436 1.092 2.497c.314.533.192.022.231-.068 1.225 2.962 2.21 6.042 3.102 9.146a88.212 88.212 0 0 1 3.408 17.211c.225 1.378.321 2.772.52 4.153l-.123 2.924c-.001 1.103.057 2.206.01 3.311l-.128 3.326c-.016.75-.124 1.569-.187 2.459-.084.888-.128 1.846-.256 2.856l-.412 3.192c-.132 1.119-.387 2.269-.583 3.471a90.635 90.635 0 0 1-4.312 15.482c-.242.826-.427 1.486-.592 1.855-.627 1.501-1.296 2.954-1.942 4.385-.723 1.394-1.386 2.788-2.127 4.108a86.09 86.09 0 0 1-7.949 12.379c-.336.439-.649.885-.987 1.297l-.998 1.206c-.66.779-1.25 1.558-1.876 2.234-1.251 1.352-2.301 2.606-3.286 3.549-1.128 1.178-1.027 1.233-.246.665a35.07 35.07 0 0 0 1.608-1.262l2.122-1.914c.776-.677 1.519-1.441 2.235-2.161.708-.725 1.416-1.386 1.962-1.984 1.101-1.191 1.824-1.926 1.67-1.599-1.777 3.345-5.013 7.471-9.743 12.035-2.413 2.227-5.128 4.647-8.339 6.98-1.566 1.221-3.307 2.338-5.082 3.558-1.834 1.123-3.708 2.353-5.757 3.445-4.484 2.442 3.365-1.475 3.577-1.512a22.87 22.87 0 0 1-2.377 1.64c-1.478.786-2.943 1.597-4.474 2.273-.895.411-1.774.855-2.679 1.239l-2.729 1.122 1.444-.568c2.952-1.173 5.711-2.555 8.202-3.922-.936.566-1.96 1.221-3.082 1.812-1.203.622-2.448 1.302-3.697 1.909l-3.625 1.686c12.968-4.711 24.885-12.507 34.319-22.67 4.723-5.066 8.935-10.631 12.369-16.651a93.904 93.904 0 0 0 8.288-18.999c-3.154 9.93-8.071 19.052-13.981 26.765 10.744-14.507 17.15-32.293 17.999-50.636-.001 1.011-.101 2.018-.168 3.025-.083 1.007-.123 2.018-.241 3.022-.257 2.005-.441 4.021-.827 6.009-.624 4-1.636 7.931-2.782 11.815 2.262-7.021 3.613-14.424 4.145-21.869.554-7.451.092-14.947-1.057-22.211 1.974 9.622 2.301 20.524.619 31.298 1.182-6.949 1.482-14.112 1.028-21.214-.102-2.713-.422-5.407-.685-7.901-.377-2.476-.662-4.762-1.027-6.611 1.445 6.826 2.015 12.648 2.293 18.136-.267-11.977-2.748-24.112-7.62-35.511 2.659 6.191 4.842 12.851 6.175 19.698 1.34 6.84 1.897 13.838 1.58 20.57-.015-.788.018-1.575-.028-2.366l-.107-2.391c.287 10.85-1.384 21.604-4.696 31.717-1.662 5.056-3.715 9.969-6.2 14.644a95.521 95.521 0 0 1-8.56 13.316c3.673-4.29 7.551-10.354 10.646-17.015 3.081-6.675 5.368-13.894 6.941-20.199-2.314 11.322-6.907 22.494-13.571 32.471-6.646 9.985-15.351 18.764-25.423 25.502-10.06 6.759-21.474 11.437-33.187 13.748a94.608 94.608 0 0 1-17.657 1.809 94.462 94.462 0 0 1-17.361-1.515l3.005.571c1.002.19 2.018.295 3.026.445 2.016.324 4.055.446 6.087.633 4.073.229 8.168.306 12.25-.005 4.089-.217 8.152-.827 12.196-1.572 2.006-.456 4.036-.829 6.017-1.414.994-.278 2-.521 2.987-.83l2.955-.958c-1.492.462-3.062 1.074-4.739 1.523l-2.101.618a91.772 91.772 0 0 0 12.91-4.496 89.46 89.46 0 0 0 5.651-2.705 96.653 96.653 0 0 1-10.714 4.872 98.407 98.407 0 0 1-21.66 5.382c-1.11.176-2.122.231-3.029.326l-2.428.24c-1.429.113-2.484.164-3.222.245-1.477.147-1.687.284-1.099.397.587.113 1.971.203 3.673.251 1.697-.01 3.71-.101 5.541-.268 18.397-1.887 35.288-9.107 48.824-19.916 13.545-10.811 23.919-25.172 29.701-41.467.363-.946.642-1.922.944-2.89.293-.971.617-1.932.882-2.912.491-1.97 1.072-3.917 1.448-5.917l.619-2.985.487-3.012.241-1.507.172-1.517.342-3.034c.698-8.114.422-16.315-.812-24.363-.66-4.554-1.82-9.961-3.315-14.777l-1.15-3.484c-.4-1.107-.825-2.151-1.203-3.133l-.557-1.415-.571-1.271-.981-2.124c-3.134-6.359-7.072-12.424-11.682-18.065-4.605-5.643-9.896-10.868-15.861-15.418l-2.244-1.703-2.327-1.608-1.166-.806-1.203-.756-2.417-1.508c-3.295-1.904-6.67-3.739-10.228-5.261-3.521-1.598-7.206-2.895-10.957-4.055-1.895-.52-3.781-1.1-5.724-1.499-.968-.209-1.928-.463-2.907-.638l-2.944-.521C100.363.01 93.04-.285 85.724.265 78.412.83 71.069 2.218 64.028 4.614l-2.635.913c-.881.297-1.73.682-2.597 1.019-.858.359-1.735.673-2.577 1.069l-2.532 1.173c-.852.376-1.675.808-2.496 1.245l-2.469 1.297-2.402 1.412c-.8.472-1.606.933-2.372 1.458l-2.324 1.528c-.782.497-1.506 1.078-2.261 1.612-.741.554-1.51 1.07-2.226 1.654l-2.157 1.737c-.729.565-1.417 1.178-2.103 1.792l-2.063 1.83-1.971 1.919c-.656.639-1.319 1.271-1.93 1.951-5.031 5.298-9.451 11.078-13.066 17.194A99.518 99.518 0 0 0 5.18 64.379C.805 77.299-.45 90.402.134 102.237c-.126-4.872-.147-11.859.753-18.755zm141.132 90.446a96.807 96.807 0 0 0 8.765-6.389c-2.84 2.339-5.758 4.499-8.765 6.389zm40.217-54.282c-.299.901-.552 1.791-.882 2.641l-.957 2.523-.466 1.248-.513 1.231a108.54 108.54 0 0 0-.997 2.501 97.307 97.307 0 0 1-6.587 13.35c-2.521 4.275-5.443 8.281-8.565 12.04-1.542 1.899-3.222 3.66-4.874 5.421l-2.581 2.523c-.847.848-1.774 1.604-2.652 2.404-.736.64-1.478 1.266-2.225 1.882a90.696 90.696 0 0 0 7.896-7.312 89.808 89.808 0 0 1-11.689 10.188c-1.036.722-2.037 1.496-3.113 2.176l-3.247 2.069-3.43 1.949c-1.167.648-2.399 1.224-3.634 1.855a74.206 74.206 0 0 1 2.685-1.508c1.021-.567 2.092-1.237 3.138-1.85 1.054-.601 2.012-1.261 2.808-1.813.796-.552 1.42-1.01 1.745-1.306-.464.315-.936.617-1.406.924a92.477 92.477 0 0 0 1.507-1.015c-.021.023-.065.059-.101.091 10.932-7.466 20.245-17.277 27.223-28.462 7.009-11.175 11.57-23.781 13.46-36.601-.41 5.142-1.352 9.248-2.543 12.851zm-6.654-65.352zm-8.448-12.698a92.37 92.37 0 0 1 7.773 14.352c.25.549.486 1.106.719 1.664 4.963 12.154 7.221 25.192 6.89 38.036.084-4.25-.198-8.498-.669-12.71-.533-4.854-1.518-9.65-2.824-14.341-2.562-9.407-6.723-18.323-12.005-26.451.485.67.996 1.396 1.525 2.166a32.826 32.826 0 0 1 1.59 2.463l-.638-1.109-.689-1.079-1.378-2.156c-.938-1.424-1.955-2.796-2.934-4.192-1.062-1.334-2.069-2.712-3.174-4.011-.836-.953-1.637-1.938-2.485-2.879 2.992 3.155 5.801 6.54 8.299 10.247zM96.886 1.152c1.467.078 2.937.221 4.407.331 1.204.101 2.402.279 3.588.413.356.015.732.039 1.204.092.471.065 1.034.186 1.769.354 5.469.912 10.459 2.283 14.001 3.699 6.798 2.573 13.123 5.774 18.86 9.471 5.739 3.69 10.889 7.887 15.246 12.471 2.008 2.179 1.422 1.704.315.646l1.662 1.764c-.736-.734-1.459-1.478-2.206-2.196l-2.301-2.09c.56.49 1.918 1.663 2.845 2.522-7.389-7.539-16.026-13.799-25.375-18.404-9.356-4.603-19.431-7.446-29.502-8.581 1.618.18 2.412.22 3.168.24-1.085-.127-2.173-.301-3.274-.401-1.479-.097-2.955-.229-4.423-.301l-4.36-.103c1.444-.001 2.907.039 4.376.073z"></path><path xmlns="http://www.w3.org/2000/svg" d="M115.942 184.69l.426-.125c-.446.12-.885.252-1.334.366.304-.076.609-.15.908-.241zM160.424 146.151c4.235-5.587 7.977-12.263 10.366-18.014l-.029.006c-6.061 14.322-15.892 26.66-28.16 35.744a159.12 159.12 0 0 0 6.418-4.703c2.698-2.82 7.213-7.406 11.405-13.033zM35.35 162.846c7.172 6.412 15.821 11.992 25.448 15.751 3.754 1.413 7.585 2.651 11.503 3.523 1.944.502 3.929.812 5.899 1.181.987.175 1.987.272 2.979.412.994.129 1.986.275 2.987.333-4.519-.501-9.005-1.251-13.372-2.44-4.364-1.185-8.642-2.65-12.769-4.449a97.4 97.4 0 0 1-11.894-6.314c-3.786-2.408-7.376-5.097-10.781-7.997zM123.877 174.277l-2.219.871-2.266.756c-1.5.54-3.047.944-4.59 1.373 1.551-.39 3.111-.754 4.624-1.254l2.283-.698 2.23-.815c-.086-.044-.594.055-.062-.233zM97.683 179.965c-1.16.099-2.326.09-3.494.102-1.168.014-2.338.039-3.509-.038l1.576.148c.482.031.916.068 1.295.113 1.381-.118 2.752-.151 4.132-.325zM51.441 169.209c1.341.787 2.765 1.48 4.178 2.244.354.194.996.415 1.801.709-1.721-.739-3.37-1.655-5.046-2.505-.83-.441-1.629-.935-2.443-1.395-.812-.464-1.621-.927-2.389-1.445l.937.626.977.584 1.985 1.182z"></path></g><g id="SvgjsG1015" featureKey="symbolFeature-0" transform="matrix(1.3900260461132998,0,0,1.3900260461132998,89.91496109653407,70.20626060621996)" fill="#f2fcfc"><path xmlns="http://www.w3.org/2000/svg" d="M93.3,43.6c-0.1-0.8-0.3-1.6-0.3-2.4c0-0.1,0-0.1-0.1-0.2c-0.3-0.6-0.4-1.3-0.5-2c-0.2-0.2-0.3-0.4-0.3-0.6  c-0.3-2.3-0.6-4.5-1.3-6.7c0,0,0,0-0.1-0.1c-0.1-0.1-0.1-0.2-0.1-0.3c0-0.1,0-0.1,0-0.2c0-0.1,0-0.1-0.1-0.2  c-0.1-0.2-0.1-0.3-0.1-0.4c-0.2-0.4-0.5-0.9-0.6-1.3c-1.1-2.8-2.6-5.4-4.2-7.9c-0.1-0.2-0.3-0.4-0.6-0.5c0.4,0.9,1,1.7,1.5,2.6  c0.5,0.8,0.4,1-0.5,1.1c-0.7,0.1-1.4,0.1-2.1,0.1c-0.3,0-0.6-0.1-0.8,0.3c0.4,0.1,0.8,0.1,1.2,0c0.4,0,0.9-0.1,1.3-0.1  c1.8,0,1.9,0,2.6,1.7c0.3,0.7,0.2,0.9-0.5,0.9c-1.3,0-2.5,0.1-3.7,0.3c-0.5,0.1-1.1,0.1-1.6,0.5c0.4,0.2,0.6,0.1,0.9,0  c1.5-0.3,2.9-0.4,4.4-0.5c1,0,1.3,0.4,1.6,1.1c0.1,0.4,0.4,0.7,0.4,1.2c-0.5,0.2-1.1,0.2-1.7,0.2c-1.4-0.1-2.7,0-4.1,0  c-2.1-0.1-4.1-0.3-6.2-0.5c-0.1,0-0.3-0.1-0.4-0.2c-0.3-0.2-0.6-0.4-0.6-0.8c0-0.3,0.3-0.5,0.6-0.7c0.9-0.4,1.9-0.8,2.8-1.2  c0.3-0.1,0.8-0.1,0.8-0.5c0.1-0.5,0.4-1,0.4-1.6c0-0.2-0.2-0.4-0.4-0.4c-0.3-0.1-0.6-0.1-0.9-0.1c-3.9-0.2-7.8,0-11.7,0.5  c-1.8,0.3-3.6,0.6-5.5,0.5c-0.7,0-1.3-0.1-1.9-0.5c-0.7-0.4-0.8-0.8-0.2-1.4c0.5-0.5,1.1-0.7,1.8-0.9c1-0.3,2-0.3,3-0.5  c0.9-0.2,1.8-0.2,2.5-0.9c0.3-0.2,0.7-0.4,0.6-0.9c-0.1-0.5-0.8-1.1-1.2-1.1c-0.8,0-1.6,0-2.3,0c-3.8,0.2-7.6,0.3-11.5,0.2  c-1.3,0-2.5-0.5-3.7-0.9c-0.5-0.2-0.7-0.6-0.7-1.1c0-0.6,0.1-1.2,0.8-1.5c1-0.5,2.1-0.8,3.3-0.8c4.1,0,8.3,0,12.4,0.1  c2.3,0,4.5,0.2,6.8,0.1c1.5,0,3-0.1,4.6,0c0.6,0,1.1,0,1.6,0.5c0.5,0.4,0.9-0.5,1.5-0.4c0.4,0.1,0.6,0.2,0.9,0.5  c0.3,0.4,0.6,0.8,1.1,1c-0.1-0.4-0.3-0.7-0.6-1c-1.2-1.3-2.4-2.5-3.7-3.6C72.9,8,67.4,5,61.4,2.9C56,1.2,50.6,0.2,44.9,0.7  c-4.8,0.5-9.5,1.5-14,3.3c-3.9,1.5-7.5,3.6-10.9,6.2c-0.2,0.2-0.4,0.4-0.6,0.5c-0.5,0.6-1.1,1.1-1.9,1.4c0,0.1,0,0.1,0,0.2  c0,0.2-0.3,0.3-0.5,0.5c-3.4,3.1-6.3,6.6-8.7,10.5C7,25.4,5.8,27.7,4.9,30c-0.6,1.6-1.4,3.3-1.7,5.1c-0.1,0.9-0.6,1.8-0.7,2.8  c-0.2,2.4-0.8,4.8-0.9,7.2c-0.1,1.7-0.1,3.5-0.1,5.2c0,1.4,0.3,2.9,0.5,4.3c0.5,2.8,1.1,5.6,2,8.3c1.2,3.6,3.5,8.4,6,11.9  c1.1,1.5,2.2,3,3.4,4.3c1,1,1.8,2.3,3.1,3c0-0.3-0.4-0.5-0.3-0.8c0.2-0.3,0.5-0.2,0.7-0.2c1.5,0.2,2.9,0.5,4.2,1.2  c1.3,0.7,2.6,1.3,3.8,2c1.3,0.7,2.5,1.5,3.8,2.3c1.9,1.2,3.7,2.6,5.4,4c0.5,0.4,1,0.9,1.5,1.8c-1.1-0.2-2-0.3-2.7-0.9  c-0.6-0.5-1.2-1-1.8-1.4c-2.8-1.8-5.6-3.7-8.6-5.1c-0.8-0.4-1.7-0.7-2.6-1c-0.8-0.2-1.5-0.5-2.1-1c0.6,0.6,1.2,1.2,1.9,1.7  c2.9,2.2,6,4.1,9.3,5.7c1.2,0.5,2.4,0.8,3.4,1.6c0.1,0.1,0.3,0.1,0.4,0.2c0,0,0,0,0,0c0.7-0.3,1.4,0.1,2,0.3  c4.1,1.1,8.2,1.8,12.4,1.8c2.8,0,5.5-0.2,8.3-0.8c0.9-0.2,1.8-0.4,2.6-0.5c0.1,0,0.2,0,0.3,0c0.3-0.1,0.6-0.2,1-0.3  c0.1,0,0.2-0.1,0.3-0.1c0,0,0-0.1,0.1-0.1c0.1-0.1,0.3-0.1,0.5-0.2c2.8-0.9,5.6-2,8.2-3.4c4.7-2.5,10.5-6.9,14.3-11.7  c2.5-3.2,4.7-6.6,6.4-10.3c0.7-1.5,1-3.3,2.1-4.6c0.1-0.1,0.1-0.2,0.1-0.3c-0.2-0.7,0.1-1.3,0.3-1.9C93.3,54.8,93.8,49.3,93.3,43.6z   M20.4,84.7c4.1,1.3,7.5,3.7,11.1,6.1C29.5,90.8,22.2,86.9,20.4,84.7z M61.4,49c0.3-1,0.7-1.9,1.4-2.7c0.4-0.5,0.9-0.8,1.6-1  c1.6-0.4,3.2-0.3,4.8,0.5c1.6,0.8,2.6,2.1,3.3,3.6c0.5,1.1,0.3,2.2-0.4,3.2c-1.4,1.7-3.2,2.7-5.3,3.1c-1.1,0.2-2.2,0.2-3.3,0.2  c-0.4,0-0.9,0-1.2-0.4c0.7-0.2,1.4-0.5,2.2-0.6c1.4-0.3,2.7-0.9,4-1.2c1.1-0.3,2-1,2.6-1.8c1.2-1.5,0.7-3.6-0.5-4.5  c-0.9-0.7-2-1.3-3-1.7c-1.2-0.5-3.2,0.2-3.8,1.2c-0.5,0.9-0.4,1.7,0,2.6c0.2,0.5,0.6,0.9,1.2,0.9c0.4,0,1-0.1,1,0.7  c0,0.5-0.1,0.7-0.5,0.8c-1.5,0.4-3.3-0.4-3.9-1.8C61.2,49.8,61.3,49.4,61.4,49z M58.3,58.3c2.3,0.3,4.6,0.3,6.8-0.4  c0.3-0.1,0.9-0.3,1.1,0.3c0.1,0.5-0.4,0.6-0.7,0.7c-1.3,0.4-2.5,0.8-3.8,1.1c-2,0.5-4,0-5.9-0.7c-1-0.3-1.8-0.9-2.6-1.6  c-1-0.8-2.2-1.2-3.5-0.8c-0.1,0-0.3,0.1-0.5,0.1c-0.4,0.1-0.6-0.1-0.7-0.4c-0.1-0.4,0.2-0.6,0.5-0.7c0.9-0.2,1.9-0.5,2.9-0.4  c1-0.1,1.9,0.2,2.6,1C55.4,57.7,56.9,58.1,58.3,58.3z M18.8,73.9c0.1,0.6-0.2,0.8-0.7,0.8c-1.4,0-2.7,0-4.1,0.2  c-0.1-0.6,0.2-1,0.3-1.4c1.4-3.9,3.8-7.2,6.5-10.3c0.6-0.7,1.1-1.4,1.7-2c0.9-1,0.9-1,2.4-0.7c-0.1,0.5-0.4,0.6-0.7,0.9  c-1.8,1.6-3.2,3.4-4.3,5.6c-0.5,1-0.5,2.1-0.9,3.1C18.8,71.4,18.5,72.6,18.8,73.9z M19.1,72.7c0.4-2.9,1-5.8,2.9-8.2  c1.1-1.4,2.4-2.6,3.8-3.8c0.2-0.2,0.4-0.4,0.7-0.4c1.1-0.3,1.9-1.1,2.9-1.6c2.9-1.3,5.8-1.5,8.6,0.2c0.3,0.2,0.6,0.4,0.7,0.7  c0.4,0.7,0.9,1.5,1.3,2.2c0.2,0.3,0.3,0.7,0.3,1.1c0,1.9-0.3,3.7-1.3,5.3c-0.7,1.1-1.4,2.3-2.4,3.3c-0.5,0.4-0.9,0.8-1.5,1.2  c-2.1,1.3-4.4,0.6-5.5-1.5c-1.3-2.4-0.7-4.5,0.6-6.6c0.6-0.9,2.1-1.3,3-1c1.1,0.4,1.5,1.5,0.9,2.5c-0.6,0.9-1.3,0.9-2.1,0.2  c-0.5-0.4-0.6-0.5-0.9,0c-0.8,1.5-0.2,3.8,1.1,4.6c0.9,0.6,1.9,0.6,2.9,0.1c1.9-1.1,3.3-2.7,4.1-4.8c0.4-1.1,0.1-2.2-0.4-3.1  c-0.7-1.3-1.6-2.3-2.7-3.2c-0.3-0.3-0.7-0.4-1-0.5c-1.4-0.3-2.7-0.2-4.1,0c-3,0.5-4.8,2.5-6.1,5c-1,2.1-1.6,4.3-1.1,6.7  c0.3,1.4,1.1,2.6,2,3.6c0.5,0.6,1.2,1.1,1.6,1.9c-1.5-0.8-3.1-1.1-4.7-1.5c-0.8-0.2-1.7-0.2-2.5-0.3c-0.7-0.1-1-0.4-1-1  C19.2,73.3,19.1,73,19.1,72.7z M39,57.7c0.1,0.2,0.2,0.3,0.3,0.5c1.9,2.2,2.7,4.7,2.7,7.6c-0.1,3.5-1.8,6.2-4.1,8.6  c-1.1,1.1-2.7,1.3-4.3,1.2c-0.2,0-0.3-0.1-0.5-0.1c-1.7,0.3-3.2-0.6-4.7-1.1c-1.2-0.4-1.8-1.4-2-2.6c-0.3-2.4-0.1-4.7,1-6.8  c0.6-1.1,1.4-2.1,2.5-2.8c0.8-0.6,1.8-0.6,2.7-0.4c2.3,0.4,4.4,2.1,3.5,5c-0.5,1.6-2.6,2.4-3.9,1.5c-0.5-0.4-0.6-0.6-0.6-1.5  c0.2-0.1,0.4,0.1,0.5,0.1c0.9,0.3,1.7,0,2.2-0.8c0.5-1,0.4-1.9-0.3-2.5c-1.2-0.9-3.2-0.8-4.1,0.5c-1.8,2.5-2.1,5-0.6,7.7  c1,1.8,4.2,2.8,5.9,1.3c1.2-0.9,2.3-1.9,3-3.2c0.5-0.8,1-1.6,1.4-2.4c0.6-1.3,0.8-2.8,0.9-4.2c0-0.6-0.2-1.2-0.5-1.8  c-0.8-1.5-1.6-2.9-3.3-3.6c-1.4-0.6-2.8-0.8-4.3-0.6c-0.3,0-0.6,0.2-0.9,0c-0.1-0.5,0.3-0.7,0.6-0.9C34.4,55,37.6,55.6,39,57.7z   M33.1,55.2c0.1-0.7,0.4-1.3,0.7-1.9c0.1-0.3,0.3-0.5,0.6-0.5c1.8,0.1,3.6,0.2,5.1,1.3c2,1.5,3.2,3.5,3.2,6.1c0,1.1-0.1,2.2-0.1,3.3  c-0.3-2.7-2.1-4.6-3.5-6.7c-0.3-0.4-0.6-0.7-1.1-0.9c-1.4-0.6-2.7-1.1-4.3-0.7C33.5,55.3,33.3,55.4,33.1,55.2z M25.5,73.3  c-1.4-1.9-1.8-3.9-1.2-6.2c0.6-2.3,1.6-4.3,3.5-5.8c2-1.7,4.3-2.1,6.8-1.7c0.9,0.1,1.5,0.7,2,1.3c0.9,1,1.9,2,2.3,3.5  c0.1,0.6,0.2,1.2-0.1,1.7C38,68,36.8,69.6,35,70.5c-1.5,0.8-2.9,0.3-3.5-1.3c-0.1-0.3-0.3-0.6-0.2-1.1c0.4,0.3,0.8,0.5,1.2,0.7  c0.6,0.3,1.2,0.4,1.8,0.1c1.5-0.6,2.4-1.6,2.5-3.2c0.1-1.6-0.5-2.7-1.9-3.5c-1.2-0.8-2.5-1.1-3.9-0.9c-0.6,0.1-1,0.3-1.5,0.6  c-2.1,1.6-3.1,3.8-3.4,6.4c-0.1,1-0.2,1.9-0.1,2.9c0.1,1.8,1,3,2.8,3.6c0.2,0.1,0.4,0.1,0.7,0.2c0.4,0.2,0.8,0.4,1.2,0.5  c0.4,0.1,0.8,0.2,1.4,0.3c-0.7,0.8-1.7,1-2.5,1.3c-0.4,0.1-0.7-0.2-0.9-0.5C27.6,75.6,26.4,74.6,25.5,73.3z M30.6,77.4  c0.8-0.3,1.5-0.7,2.1-1.2c0.1-0.1,0.3-0.2,0.4-0.2c0.8,0.2,1.5,0,2.4,0c-0.7,1.5-1,3-1.3,4.5c-0.5,0.1-0.8-0.3-1.1-0.5  c-0.9-0.6-1.7-1.2-2.6-1.8C30,77.9,30.1,77.6,30.6,77.4z M34.7,80.1c0.1-1,0.4-1.9,0.7-2.8c0.3-0.8,0.7-1.6,1.6-1.9  c0.4-0.1,0.7-0.4,1.1-0.6c0.3,0.4,0.2,0.7,0.1,1c-0.4,2-0.3,4-0.2,5.9c0,0.6,0.4,1.1,0.3,1.7c-0.3,0.1-0.4,0-0.6-0.1  c-0.9-0.6-1.7-1.3-2.6-1.9C34.8,81.1,34.6,80.7,34.7,80.1z M39,74.3c0-0.2,0.1-0.4,0.2-0.5c1.1-1.5,1.8-3.2,3-4.6  c0.6-0.8,1.4-1.3,2.3-1.7c1.5-0.5,3-0.4,4.5,0.1c2.3,0.9,3.2,2.5,3.2,5.3c0,2.5-0.9,4.7-2.7,6.5c-1.1,1.1-2.8,1.3-4,0.3  c-1.5-1.3-1.8-2.7-1-4.4c0.8-1.7,1.8-1.8,2.9-0.3c-0.2,0.3-0.5,0.3-0.8,0.4c-1.1,0.8-1.1,1.8-0.5,2.9c0.5,0.9,1.8,1,2.8,0.5  c1.9-1.1,2.6-2.8,2.3-5c-0.2-1.5-1.2-2.5-2.5-3.1c-2.2-1-4.8-0.1-5.9,1.8c-1.3,2.1-2.1,4.4-1.7,6.9c0.2,1.5,0.7,2.9,1.7,4.1  c1.1,1.4,2.3,2.8,3.9,3.8c1.1,0.7,2,1.6,3,2.4c-1.9-0.3-3.6-1-5.3-1.9c-1.1-0.6-2.2-1.4-3.3-2c-1.8-0.9-2.4-2.5-2.6-4.3  C38.2,79.1,38.6,76.7,39,74.3z M49.6,74.7c-1-2.4-3.6-3.2-5.5-1.2c-1,1.1-1.5,2.2-1.4,3.7c0.1,0.6,0.2,1.1-0.5,1.5  c-0.2,0.1-0.2,0.5-0.4,1c-0.1-0.4-0.2-0.6-0.2-0.8c-0.5-2.3,1.2-6.4,3.2-7.6c1.5-0.9,3.6-0.7,5,0.6c1.4,1.2,1.5,3,0.8,4.5  c-0.4,1-1.4,1.7-2.5,2.2c-0.5,0.2-1.2-0.1-1.5-0.6c-0.4-0.7-0.3-1.5,0.2-1.9c0.4-0.4,0.9-0.4,1.4-0.1c0.3,0.2,0.4,0.5,0.5,0.8  c0.2,0.4,0.5,0.4,0.7,0C49.7,76.1,49.8,75.4,49.6,74.7z M45.2,81.3c-0.8-0.4-1.3-1.1-1.6-1.9c-0.3-0.9-0.5-1.8-0.5-2.8  c0-1.3,1.3-3.1,2.5-3.6c1.7-0.7,3.6,0.8,3.4,2.7c-0.4,0.1-0.5-0.2-0.7-0.5c-0.4-0.5-0.9-1-1.4-1.4c-0.8-0.5-1.3-0.4-2,0.2  c-1.2,1-1.4,2.4-1.3,3.8c0,0.5,0.3,0.9,0.6,1.2c0.3,0.3,0.6,0.5,0.8,0.8c1.6,1.4,3.5,1.2,5-0.4c1.9-2,2.5-4.3,2.5-6.9  c0-1.1-0.3-2.2-0.9-3.2c-0.7-1.3-2-2-3.4-2.3c-1.9-0.5-3.8-0.3-5.5,0.7c-0.1,0.1-0.2,0-0.4,0.1c0.2-0.9,0.3-1.9,0.4-2.8  c0.1-0.4,0.4-0.5,0.6-0.6c1-0.6,2-0.6,3.1-0.4c0.9,0.1,1.7,0.4,2.6,0.8c1.9,0.8,3.1,2.3,4.2,3.9c0.4,0.7,0.5,1.5,0.6,2.2  c0.3,1.4,0.7,2.9,0.6,4.4c0,0.7-0.1,1.3-0.5,1.9c-0.8,1.3-1.5,2.6-2.6,3.6c-0.4,0.4-0.8,0.8-1.4,1.1c-1.1,0.5-2.1,0.7-3.2,0.2  C46.4,81.9,45.8,81.6,45.2,81.3z M48.8,53.7c-0.2,0-0.5,0.1-0.7,0.1c-1.6,0.4-1.6,0.4-2.7-1c0.6-0.4,1.3-0.6,2-0.7  c1.4-0.2,2.9-0.2,4.3,0.3c1.1,0.4,2.2,0.8,3.6,1.2C52.9,53.6,50.9,53.3,48.8,53.7z M51.8,43.3c0.3-0.9,1-1.2,2-1.2  c-0.2,1.6-1.2,2.7-2.4,3.6c-1.5,1.2-3.2,1.9-5,2.3c-1.4,0.3-2.8,0.5-4.3,0.6c-2.1,0.3-3.9-0.3-5.5-1.7c0,0,0-0.1-0.1-0.3  c0.6,0,1.1,0.2,1.6,0.4c2.3,0.9,4.6,0.9,7,0.4c0.3-0.1,0.6-0.2,0.9-0.2c2.5-0.1,4-1.6,5.4-3.4C51.6,43.8,51.7,43.5,51.8,43.3z   M35,43.7c1.3,0.5,2.7,0.5,4,0.7c2.5,0.5,4.8,0,7.1-1c1.3-0.6,2.3-1.6,2.9-2.9c0.5-1,0.5-2,0-3c-0.5-1-1.5-1.4-2.7-1  c-0.7,0.2-1.4,0.6-2.1,0.9c-0.5,0.3-0.9,0.7-1,1.2c-0.1,0.3-0.3,0.7,0,1c0.3,0.3,0.8,0.4,1.2,0.2c0.3-0.2,0.6-0.4,0.9-0.6  c0.2-0.1,0.4-0.2,0.5,0c0.1,0.1,0.1,0.3,0,0.4c-0.4,0.6-0.8,1.2-1.6,1.2c-0.8,0.1-2-0.5-2.1-1.2c-0.2-0.8,0-1.6,0.3-2.4  c0.8-1.8,2.4-2.4,4.1-2.6c1.6-0.2,2.9,0.6,3.9,1.9c0.1,0.1,0.1,0.2,0.2,0.3c0.9,0.7,0.9,1.5,0.6,2.5c-0.3,1.3-0.8,2.4-1.5,3.5  c-0.8,1.2-2,1.7-3.3,2c-3.4,0.8-6.7,0.6-10-0.4c-1.1-0.4-2.2-0.7-3.5-1.4C33.8,43.3,34.5,43.5,35,43.7z M33,53.9  c-0.7,2.2-2.3,3.6-4.2,4.6c-0.1,0.1-0.2,0.1-0.4-0.1c0.6-1.6,2.1-2.8,2.6-4.4c0.5-1.6,1.1-3.2,1.3-4.9C33.1,50.6,33.6,52.1,33,53.9z   M6.3,27.9c1.7-3.7,3.9-7.1,6.5-10.2c0.9-1.1,1.9-2.2,3-3.3c0.4-0.4,0.9-0.6,1.4-0.5c3,0.5,5.9,0,8.9,0.2c0.1,0,0.2,0,0.3-0.3  c-1-0.3-2-0.1-3-0.1c-1.1,0-2.1,0.1-3.2,0.1c-1,0-2.1,0-3.2-0.4c0.8-0.9,0.8-0.9,1.6-0.6c0.5,0.2,0.8,0.2,1.3,0.1  c0.9-0.3,1.8-0.2,2.7,0c2,0.3,4.1,0.6,6.1,0.8c0.9,0.1,1.8,0.4,2.7,0.7c0.5,0.2,0.6,0.5,0.1,0.8c-0.9,0.6-1.9,0.8-2.9,0.9  c-2.7,0.4-5.5,0.9-8.2,1.3c-0.2,0-0.3,0-0.5,0.1c-0.5,0.2-1.1,0.5-1.1,1.1c0,0.6,0.7,0.7,1.1,0.8c1.1,0.4,2.3,0.5,3.4,0.6  c1.4,0.2,2.9,0.2,4.3,0.5c0.3,0.1,0.7,0.1,1,0.2c0.7,0.3,0.8,1.1,0.3,1.6c-0.7,0.7-1.7,0.8-2.6,1c-1.9,0.3-3.9,0.4-5.8,0.2  c-1.7-0.1-3.4-0.3-5.1-0.4c-1.3-0.1-2.7,0.1-3.9,0.7c-0.5,0.2-1.2,0.4-1.2,1c0,0.7,0.8,0.7,1.2,0.9C12.2,26,12.6,26,13,26  c0.8,0,1.5,0.2,2.3,0.5c0.6,0.2,0.6,0.6,0.3,1.1c-0.1,0.1-0.3,0.3-0.4,0.4c-1.3,0.4-2.5,0.9-3.9,0.7c-1.3-0.2-2.5,0.1-3.7,0.3  C7,29,6.5,29.1,6,29.2C5.9,28.7,6.2,28.3,6.3,27.9z M28.2,37.4c-0.3,0.3-0.5,0.1-0.7,0c-2.9-1-5.7-2-8.7-2.7c-2.5-0.6-5.1-0.7-7.6,0  c-1.4,0.4-2.8,0.8-4.2,1.2c0-0.2,0.1-0.2,0.3-0.3c1.9-1,4-1.8,6.1-2.4c1.9-0.6,3.8-0.1,5.6,0.3c1.6,0.4,3.1,1.1,4.5,1.8  c1.2,0.6,2.5,1,3.8,1.6C27.5,37,27.9,37.1,28.2,37.4z M5.5,36.3c0.4-0.2,0.8-0.4,1.3-0.4c-0.2,0.5-0.6,0.7-1,0.9  c-0.2,0.1-0.4,0.1-0.5-0.1C5.2,36.5,5.4,36.3,5.5,36.3z M8.7,38.8c1.1-0.3,2.2-0.6,3.4-0.8c1.9-0.3,3.7-0.2,5.6,0  c3.4,0.4,6.7,1.5,9.9,2.5c0.7,0.2,1.5,0.5,2.2,0.7c0.5,0.2,1.2,0.3,1.4,1.2c-0.9-0.3-1.8-0.5-2.5-0.8c-3.3-1.4-6.7-2.1-10.2-2.8  c-1.6-0.3-3.2-0.3-4.9-0.4c-1.2-0.1-2.4,0.4-3.7,0.6c-1.6,0.3-3.2,0.8-4.7,1.4c-0.2,0.1-0.4,0.3-0.7,0C5.8,39.7,7.2,39.2,8.7,38.8z   M2.9,57.2c-0.1-0.6-0.1-1.2-0.3-1.7c-0.2-0.8,0.1-1.3,0.5-1.9c2.5-3.1,5.7-5.2,9.3-6.6c1.2-0.5,2.5-0.9,3.7-1.4  c0.5-0.2,0.9-0.4,1.6-0.2c-1.6,1.7-3.5,3-5,4.7c-1.5,1.7-3.3,3.1-4.6,4.9c-1.3,1.8-3.1,3.3-4.4,5.4C3.2,59.2,3.1,58.1,2.9,57.2z   M3.9,61.2c-0.1-0.3,0.1-0.6,0.3-0.9c0.5-0.8,1-1.6,1.7-2.2C7,57,8.1,55.8,9,54.5c1.7-2.2,3.9-3.9,5.9-5.9c1-1,2.2-1.9,3.2-2.9  c0.8-0.7,1.6-1.2,2.6-1.4c1.1-0.1,2.1-0.3,3.2-0.2c0.1,0.3-0.1,0.3-0.2,0.4c-2.2,0.3-3.7,1.7-5.2,3.1c-0.8,0.7-1.5,1.6-2.1,2.5  c-2,2.8-3.8,5.6-5.5,8.5c-1.2,2-2.9,3.5-4.7,5c-0.3,0.3-0.7,0.5-1.1,0.8C4.4,63.4,4.2,62.3,3.9,61.2z M5.5,65.7  c-0.3-0.7,0.2-1.2,0.6-1.6c0.6-0.5,1.2-1,1.8-1.5c1.8-1.5,3.2-3.4,4.4-5.4c1.4-2.6,3.3-5,5-7.5c1.1-1.6,2.6-2.7,4.1-3.8  c0.2-0.1,0.4-0.3,0.6-0.3c1.4-0.5,2.9-0.8,4.4-1.1c0.5-0.1,0.9,0,1.2,0.5c0.2,0.5,0.6,0.5,1,0.6c1.4,0.2,2.6,1.4,2.9,2.8  c0.2,1.1,0.1,2.1-0.2,3.1c-0.6,2-1.3,3.9-2.7,5.5c-0.3,0.4-0.5,0.8-0.7,1.2c-0.7,1.3-1.8,1.9-3.3,1.8c-2.9-0.2-4.4-2.3-4.3-5.1  c0.1-1.3,0.4-2.5,1.2-3.6c0.5-0.6,1.1-0.9,1.8-0.8c0.3,0,0.6,0.1,0.8,0.4c0.1,0.2,0.3,0.4,0.2,0.6c-0.1,0.2-0.4,0.2-0.6,0.2  c-1.4-0.1-2,0.3-2.2,1.6c-0.3,1.7,0,3.2,1.4,4.3c0.4,0.3,0.8,0.5,1.3,0.5c1.6,0,3.1-0.5,4.2-1.8c0.8-1,1.5-2,1.8-3.3  c0.2-1,0.1-1.8-0.4-2.7c-1.3-2.2-3.3-3-5.6-3.5c-2.9-0.6-4.5,1-6.1,3c-1.5,2-2.2,4.4-3.2,6.6c-0.8,1.8-1.4,3.7-1.8,5.7  c-0.6,2.6-1.9,5-3.4,7.3C9.2,70,8.9,70.5,8.2,71C7,69.3,6.2,67.5,5.5,65.7z M8.5,71.8c-0.1-0.3,0.2-0.5,0.3-0.7  c1.6-1.9,2.6-4.1,3.6-6.2c0.4-1,0.8-2,1-3c0.3-1.4,0.8-2.8,1.3-4.1c0.7-1.6,1.2-3.2,1.9-4.8c0.9-2,2.2-3.8,4-5.1  c0.6-0.4,1.3-0.6,2.1-0.6c2.1,0,3.8,0.8,5.4,2c1.6,1.2,1.9,3.8,0.7,5.8c-1,1.6-2.4,2.5-4.3,2.7c-0.8,0.1-1.3-0.4-1.8-0.9  c-0.9-1.1-1-2.3-0.6-3.6c0.1-0.3,0.2-0.6,0.6-0.6c0.2,0.2,0,0.4-0.1,0.5c-0.4,1-0.3,1.4,0.4,2.1c0.7,0.7,1.2,0.7,2.1,0.3  c2.2-1.1,2.8-4.6,1-6.2c-0.6-0.5-1.4-0.7-2.2-0.6c-2.4,0.2-3.8,1.8-5,3.7c-0.9,1.4-1,2.9-1,4.6c0,3.9-0.5,7.7-2.8,11.1  c-1,1.4-1.9,2.8-3.3,3.9c-0.4,0.3-0.8,0.6-1.3,0.9C9.6,73.3,8.8,72.9,8.5,71.8z M11.3,75.7c-0.6-0.3-1-1.1-1.3-1.7  c-0.2-0.3,0.2-0.5,0.4-0.6c1.1-0.6,2.2-1.4,3.1-2.3c0.2-0.2,0.4-0.4,0.6-0.6c1.9-2.7,3.7-5.5,4.1-8.9c0.2-1.9,0.6-3.8,0.4-5.8  c-0.1-1,0.2-1.9,0.7-2.8c0.4-0.8,1-1.5,1.6-2.2c1-1.2,2.3-1.5,3.8-1.6c0.6-0.1,1.2,0.2,1.5,0.8c0.3,0.6,0.7,1.2,0.6,2  c-0.1,1.4-0.6,2.5-1.8,3.2c-0.4,0.2-0.9,0.3-1.3-0.1c-0.4-0.4-0.8-0.8-0.6-1.4c0.1-0.2,0.1-0.4,0.3-0.6c0.5-0.8,0.9-0.9,1.7-0.3  c0.2,0.1,0.3,0.3,0.5,0.2c0.2-0.1,0.1-0.3,0.1-0.5c-0.2-0.5-0.4-0.9-0.6-1.4c-0.7-1.2-2.1-1.4-3.1-0.5c-0.8,0.7-1.2,1.7-1.5,2.7  c-0.4,1.6-0.5,3.2,0.4,4.8c0.4,0.8,1.1,1.4,1.9,1.9c0.4,0.2,0.5,0.5,0.2,0.8c-0.8,0.9-1.5,1.9-2.3,2.8c-1.8,2.1-3.4,4.3-4.8,6.7  c-0.7,1.2-1,2.4-1.6,3.6c-0.2,0.5-0.3,1.1-0.8,1.4C12.4,75.5,11.8,76,11.3,75.7z M42.9,93.8c-1.5,0-3-0.4-4.5-0.6  c-0.7-0.1-1.3-0.4-1.8-0.7c-0.3-0.2-0.6-0.4-0.8-0.7c-0.6-0.8-1.4-1.4-2.1-2c-2.5-2-5.1-3.7-7.8-5.3c-1.7-1-3.4-1.9-5.1-2.7  c-1.4-0.7-3-1-4.5-1c-1,0-1.4-0.8-1.9-1.4c-0.2-0.2-0.1-0.4,0.2-0.5c0.3-0.1,0.6-0.2,0.9-0.2c1.9-0.1,3.8,0.1,5.6,0.7  c2.7,1,5.3,2.2,7.9,3.5c1.3,0.7,2.6,1.6,3.8,2.6c1.3,1.1,2.6,2.2,3.8,3.3c0.9,0.9,2,1.6,3,2.3c1.2,0.8,2.4,1.5,3.6,2.3  C42.9,93.6,42.9,93.7,42.9,93.8z M42.9,92.9c-2.8-1.6-5.5-3.4-7.8-5.7c-3.1-3-6.6-5.1-10.6-6.8c-1.3-0.5-2.6-1.1-3.9-1.5  c-2.1-0.7-4.3-0.9-6.4-0.4c-0.5,0.1-1.2-0.3-1.3-0.8c-0.1-0.3,0.2-0.4,0.4-0.5c0.8-0.3,1.7-0.5,2.6-0.5c3.2-0.2,6.2,0.5,9.1,1.7  c2.1,0.9,4.2,1.9,6.2,3.3c2.2,1.6,4.3,3.4,6.7,4.7c1.6,0.9,3.2,2,4.7,3c1.8,1.2,3.7,2.1,5.4,3.4c0.4,0.3,0.9,0.4,1.4,0.9  C47,94.2,44.8,94.1,42.9,92.9z M52.9,93.7c-2.5,0.3-2.8,0.3-4.8-1.1c-1.2-0.8-2.4-1.4-3.6-2.2c-1.4-1-2.9-1.7-4.2-2.7  c-1-0.7-2.1-1.4-3.1-2c-1.1-0.7-2.1-1.5-3.1-2.2c-2.3-1.6-4.4-3.4-7.1-4.5c-2-0.8-4-1.7-6.2-2.1c-2.5-0.5-5-0.7-7.5,0.1  c-1,0.3-1.4,0.2-1.5-0.3c-0.1-0.7,0.7-0.6,1.1-0.8c1.7-0.6,3.4-0.5,5.2-0.6c2-0.1,3.9,0.2,5.9,0.6c0.5,0.1,0.9,0.3,1.3,0.5  c1.8,0.8,3.6,1.6,5.3,2.6c1.2,0.8,2.4,1.6,3.5,2.5c0.9,0.7,1.9,1.3,2.8,2c2.1,1.7,4.2,3.3,6.6,4.6c1.7,0.9,3.5,1.8,5.4,2.3  c2.5,0.7,4.9,1.7,7.4,2.5c0.1,0,0.1,0.1,0.3,0.3C55.4,93.4,54.2,93.5,52.9,93.7z M78.8,81.1c-3.5,3.5-7.6,6.3-12,8.4  c-2.2,1.1-4.6,2-7,2.7c-0.5,0.1-0.9,0.5-1.4-0.1c-0.1-0.1-0.4,0-0.6-0.1c-2.4-0.4-4.8-0.9-6.9-2.4c-1-0.8-2.2-1.3-3.2-2.2  c-0.3-0.2-0.6-0.4-0.7-0.9c4.2-0.6,8.2-1.5,12.3-2.1c3.6-0.6,7.3-1.1,10.9-1.8c2.8-0.6,5.6-1.1,8.4-2.1c0.1-0.1,0.3-0.1,0.5-0.1  C79.2,80.8,79,81,78.8,81.1z M72.2,65.2c-0.5,1-2.5,3-3.4,3.3C69.8,67.4,70.5,65.9,72.2,65.2z M68.9,66.1c0-0.3,0.1-0.3,0.9-0.4  c0,0,0,0.1,0,0.1c-0.2,0.3-0.4,0.6-0.8,0.5C68.9,66.3,68.9,66.2,68.9,66.1z M72.4,66c-0.4,0.6-0.9,1.1-1.5,1.5  C71.3,66.9,71.7,66.3,72.4,66z M69,69.5c-0.1,0.4-0.2,0.6-0.6,0.8C68.5,69.8,68.6,69.6,69,69.5z M68.8,71.5c1-0.9,2.1-1.8,2.9-2.8  c-0.4,0.1-0.7,0.4-0.9,0.6c-0.2,0.2-0.4,0.4-0.9,0.3c0-0.4,0.4-0.7,0.6-1c1.1-1.1,2.2-2.2,3.3-3.3c0.6-0.6,1.3-0.8,2.2-0.8  c-0.2,0.8-0.9,1-1.3,1.4c-0.4,0.4-0.9,0.8-1.4,1.2c0.6-0.1,1-0.5,1.5-0.9c0.5-0.4,0.9-0.9,1.5-1.1c-0.3,0.7-0.9,1.1-1.4,1.6  c-2,1.7-3.7,3.6-5.7,5.3c-0.3,0.2-0.5,0.6-1.1,0.6C68.1,72,68.5,71.8,68.8,71.5z M68.3,73.5c2.7-2.6,5.3-5.3,8.1-7.7  c0.5-0.4,0.9-1,1.7-0.9c0-0.8,0.6-0.8,1.2-0.9c-0.1,0.5-0.3,1-1,1c0,0.4-0.2,0.6-0.5,0.8c-1.6,1.5-3.2,3.1-4.9,4.5  c-1,0.9-1.9,1.8-2.9,2.7c-0.6,0.5-1.2,1.1-2,1.4C67.8,74,68,73.8,68.3,73.5z M76.4,65.1c0.1-0.4,0.4-0.6,1-0.6  C77,64.9,76.8,65.2,76.4,65.1z M81.9,63.7c0.1-0.1,0.1-0.1,0.9-0.1c-1.9,2-3.8,3.9-5.9,5.6c0.2,0,0.5-0.1,0.4,0.3  c-0.1,0.2-0.3,0.3-0.5,0.5c-0.9,0.7-1.7,1.4-2.6,2.2l0,0c-0.6,0.5-1.1,1.2-1.8,1.5c0,0-0.1,0.1-0.1,0.1c-0.4,0.3-0.8,0.7-1.2,1  c0,0-0.1-0.1-0.1-0.1c0.2-0.2,0.5-0.5,0.7-0.7c-1,0.2-1.3,1.1-2.1,1.6c-0.3-0.3,0-0.4,0.2-0.6c1.7-2,3.7-3.7,5.7-5.4  c1.2-1,2.3-2,3.3-3.2c-0.7,0.4-1.3,0.9-1.8,1.4c-1.4,1.4-2.9,2.6-4.4,3.9c-0.1,0.1-0.3,0.2-0.5,0.2c0.3-0.7,0.8-1.2,1.4-1.6  c1.6-1.3,3.1-2.7,4.6-4.2c0.7-0.7,1.6-1.3,2.2-2.2c0.2-0.2,0.5-0.2,0.8-0.1c-0.6,1.1-1.8,1.5-2.4,2.5C79.9,65.6,81,64.8,81.9,63.7z   M84.3,64.2c0.5-0.2,0.9-0.7,1.5-1c0,0.9-0.9,1.1-1,1.7c-0.7,0.3-1,0.9-1.5,1.3c-1.5,1.2-2.9,2.5-4.4,3.7c-0.2,0.2-0.4,0.4-0.8,0.1  c0.7-1,1.8-1.4,2.6-2.3c0.8-0.9,1.6-1.7,2.5-2.5c-1.1,0.6-1.9,1.6-2.8,2.4c-0.5,0.5-1.1,0.9-1.7,1.2c1.9-2,3.8-3.9,5.9-5.6  C84.8,63.7,84.3,63.9,84.3,64.2z M81.6,69.2c-0.5,0.5-1.1,0.7-1.9,0.8c0.5-0.8,1.1-1.2,1.6-1.7c1.2-1.1,2.5-2.1,3.5-3.3  c0.8-0.6,1.5-1.2,2.3-1.8c0.3,0.3,0,0.5-0.1,0.6c-0.3,0.4-0.6,0.8-1,1.1C84.6,66.3,83.1,67.8,81.6,69.2z M85.6,66  c-0.9,1.3-2,2.4-3.2,3.4C82.5,68.7,84.3,66.8,85.6,66z M71.1,72.8c-0.7,1.2-1.9,2-2.9,2.9c-0.1,0.1-0.3,0.1-0.4-0.1  c0-0.1,0-0.2,0-0.2C69.2,74.8,69.8,73.4,71.1,72.8z M69,76.1c-0.1,1-0.9,1.2-1.5,1.7C67.5,76.6,68.3,76.6,69,76.1z M69.2,77.9  c-0.3,0.5-0.7,0.9-1.2,1.2C68.1,78.5,68.7,78.3,69.2,77.9z M67.8,80c1.3-0.9,2.3-2.2,3.5-3.4c-0.6,0.1-0.9,0.7-1.5,0.8  c0.9-1.1,2.1-1.9,3.1-2.9c0.8-0.9,1.7-1.8,2.8-2.5c-0.3,0.9-1.2,1.2-1.6,2c0.5,0.1,0.7-0.4,1-0.7c0.4-0.4,0.9-0.8,1.4-1.2  c0.3,0.6,0.1,0.9-0.2,1.3c-0.5,0.6-1.1,1.1-1.7,1.6c-0.7,0.6-1.5,1.1-2.1,1.8c1-0.5,1.8-1.3,2.7-2c0.4-0.3,0.7-0.6,1.3-1  c0,1.1-1,1.2-1.2,1.8c0.2-0.1,0.5-0.1,0.7-0.2c0,0,0.1,0.1,0.1,0.1c-0.7,0.8-1.5,1.5-2.2,2.3c0.6-0.4,1.1-0.8,1.7-1.3  c-0.2,0.9-1.2,1-1.5,1.8c0.3,0,0.5-0.3,0.9-0.3c0.1,0.4-0.5,0.5-0.4,0.8c0.4,0.1,0.5-0.5,0.9-0.3c0,0.7-0.6,1.1-0.8,1.7  c-0.2,0.1-0.5,0.2-0.7,0.3c-0.9,1.3-2.4,1-3.7,1.3c0.7-0.6,1.4-1.2,2-1.9c0.2-0.2,0.6-0.4,0.6-0.8c-1.2,0.9-2.4,1.9-3.6,2.9  c0.4-1.1,1.5-1.5,2-2.5c-0.8,0.4-1.4,1.2-2.2,1.6c-0.2-0.3-0.1-0.5,0.1-0.6c1.3-1,2.4-2.2,3.7-3.2c0.5-0.4,1-0.7,1.2-1.4  c-1.6,1.2-3.1,2.5-4.7,3.7c0-0.6,0.6-0.7,0.6-1.2c-0.7,0.2-1.2,0.8-1.8,1.3c-0.3,0.2-0.6,0.5-0.9,0.8C67.1,80.4,67.5,80.2,67.8,80z   M74.6,80.4C74.6,80.4,74.6,80.4,74.6,80.4C74.6,80.4,74.6,80.4,74.6,80.4c0.2-0.2,0.4-0.3,0.5,0c0.1,0.5-0.1,0.7-1,0.7  C74.1,80.9,74.3,80.7,74.6,80.4C74.6,80.5,74.6,80.5,74.6,80.4C74.6,80.5,74.6,80.5,74.6,80.4z M67.9,81.3c0.1,0.7-0.4,0.8-0.8,1  C67,81.7,67.4,81.6,67.9,81.3z M80.8,79.1c-1.3,0.8-2.7,1.5-4.2,1.7c-0.8,0.1-0.9,0-0.8-0.8c0.2-1.2,0.3-2.4,0.6-3.6  c0.4-1.3,0.6-2.7,0.7-4c0.1-1.2,0.3-1.5,1.6-1.7c1-0.2,1.9-0.3,2.9-0.6c1.3-0.3,1.4-0.2,1.3,1.6c-0.2,1.5-0.6,3.6-0.9,5.6  C81.8,78.2,81.4,78.7,80.8,79.1z M86.2,71.6c-0.1,0.1-0.2-0.2-0.3-0.3c0.2-0.2,0.4-0.3,0.6-0.5C86.8,71.2,86.6,71.5,86.2,71.6z   M88.5,67.3c-0.5,0.3-0.8,0.8-1,1.4c0.1-0.1,0.3-0.3,0.4,0c0,0.3-0.2,0.5-0.5,0.7c-0.6,0.5-1.1,1.2-1.5,1.8c-0.7,0.3-1,1-1.4,1.5  c0.3-0.3,0.6-0.6,0.8,0.1c0,0.6-0.4,1-0.7,1.4c-0.6,0.8-1.1,1.8-2,2.5c-0.1-0.8,0.5-1.2,0.7-1.6c-0.5,0.1-0.5-0.2-0.5-0.5  c0-0.6,0.3-1.2,0.6-1.8c-0.4-0.5-0.3-1,0.2-1.3c0.7-0.4,1.1-1.1,1.6-1.7c1.1-1.1,2.1-2.1,3.2-3.2c0.2-0.2,0.4-0.5,0.8-0.6  C89.1,66.5,88.9,67,88.5,67.3z M89.6,64.7c-0.9,1.1-1.9,2.2-3,3.3c-0.5,0.5-1.2,1-1.4,1.8c-0.7,0.3-1,1.1-1.7,1.4  c0-0.9,0.6-1.3,1-1.8c-0.1,0.1-0.3,0.2-0.4,0.2c-0.2,0.1-0.5,0.4-0.7,0c-0.2-0.3-0.1-0.5,0.1-0.8c1.7-1.9,3.4-3.9,5.2-5.6  c0.2-0.2,0.4-0.3,0.8-0.3c0,0.5-0.4,0.7-0.7,1c-0.9,1-1.8,2-2.7,3c-0.2,0.2-0.2,0.5-0.3,0.7c1.4-1.4,2.6-3.1,4.3-4.4  C90.2,64,89.9,64.4,89.6,64.7z M91.6,59.1c-0.1,1.1-0.4,1.9-0.7,2.6c-0.2,0.5-0.6,0.6-1.1,0.6c-1.6,0.1-3.3,0.3-4.9,0.5  c-2.8,0.3-5.7,0.6-8.4,1.1c-1.3,0.3-2.6,0.4-3.9,0.6c-1.3,0.2-2.5,0.7-3.8,0.7c-1.3,0-2.6,0.2-3.8,0.6c-0.3,0.1-0.7,0.2-1.1,0.1  c0-0.4,0.3-0.6,0.5-0.8c3-2.2,5.7-4.9,8.6-7.2c2.9-2.3,5.5-4.8,8.2-7.3c2.5-2.4,5.1-4.5,7.8-6.7c0.8-0.6,1.5-1.3,2.3-2  c0.3-0.3,0.7-0.7,1.1-0.9c0.4,0.9,0.4,1.9,0.5,2.9c0.2,3.4,0.2,6.8-0.3,10.2c-0.1,0.4-0.1,0.9-0.4,1.2l0,0c0.1,1.1,0,2.2-0.6,3  c-0.5,0.8-1.2,1.5-1.9,2.2c-0.3,0.2-0.6,0.5-0.7,1C90.1,61,90.6,60,91.6,59.1z"></path><path xmlns="http://www.w3.org/2000/svg" d="M82,16.9c1.3,1.1,2.4,2.4,3.1,4c0,0,0,0,0,0c-0.6-0.4-0.9-1.1-1.3-1.6c-0.2-0.2-0.3-0.4-0.6-0.4c-1.2,0.1-2.4,0-3.6,0.1  c-0.6,0-1.2,0-1.8,0c1.7-0.3,3.5,0.1,5.2-0.4C82.8,17.8,82.1,17.6,82,16.9L82,16.9z"></path><path xmlns="http://www.w3.org/2000/svg" d="M16.4,82c0.5,0.1,0.6,0.4,0.7,0.8C16.9,82.6,16.7,82.3,16.4,82z"></path><path xmlns="http://www.w3.org/2000/svg" d="M75.6,70.5c-0.6,0.5-1.1,0.9-1.4,1.6c0,0,0,0,0,0c-0.2,0-0.4,0-0.6,0c0,0,0,0,0,0C74,71.4,74.8,70.9,75.6,70.5z"></path><path xmlns="http://www.w3.org/2000/svg" d="M71.6,74c0.4-0.9,1.1-1.5,2-1.8c0,0,0,0,0,0c-0.2,0.7-1.1,0.8-1.2,1.6c0,0-0.1,0.1-0.1,0.1C72.1,73.9,71.9,74,71.6,74z"></path><path xmlns="http://www.w3.org/2000/svg" d="M84.3,73.3c0.4,0.1,0.5-0.6,1-0.4c0,0,0-0.1,0-0.1c-0.3,0.3-0.5,0.8-1,1C84.3,73.7,84.3,73.5,84.3,73.3z"></path><path xmlns="http://www.w3.org/2000/svg" d="M71,17.5c-0.1,0-0.2,0.1-0.3,0.1c-2.2-0.4-4.4-0.4-6.6-0.2c-0.2,0-0.4,0-0.6,0c-3-0.7-6.1-0.3-9.2-0.4c-0.5,0-1,0.1-1.5-0.1  c0-0.4,0.4-0.3,0.6-0.3c1.2,0.2,2.4,0,3.6,0c1.9,0,3.8,0,5.7,0.3c0.9,0.1,1.7,0.1,2.6,0.1C67.2,16.9,69.1,16.8,71,17.5z"></path><path xmlns="http://www.w3.org/2000/svg" d="M75.6,22.6c-2.2,0-4.3,0.6-6.5,0.7c0.6-0.5,1.3-0.5,2-0.5c0.8-0.1,1.5-0.2,2.3-0.3C74.1,22.5,74.8,22.2,75.6,22.6z"></path><path xmlns="http://www.w3.org/2000/svg" d="M78.4,57.7c0.4-0.8,1.2-1.2,1.8-1.8c1.1-1.1,2.3-2.2,3.6-3.2c1.1-0.8,2-1.8,2.9-2.9c0.9-1.1,1.9-2,2.8-3  c0.1-0.1,0.3-0.3,0.5-0.1C86.6,50.9,82.6,54.4,78.4,57.7z"></path><path xmlns="http://www.w3.org/2000/svg" d="M77.8,55.6c-1.3,1.9-9.7,8.6-10.9,8.8c2-1.3,3.6-3.1,5.5-4.5C74.3,58.6,76,57,77.8,55.6z"></path><path xmlns="http://www.w3.org/2000/svg" d="M77.8,62.4c0.3-1,1.2-1.5,1.9-2.1c1.8-1.4,3.3-3.1,4.9-4.7c0.3-0.3,0.5-0.6,0.9-0.7l0,0c0,0.3-0.1,0.4-0.3,0.6  c-1.3,1.4-2.6,2.8-4,4.1C80,60.4,78.9,61.4,77.8,62.4C77.8,62.3,77.8,62.4,77.8,62.4z"></path><path xmlns="http://www.w3.org/2000/svg" d="M92.3,55.3c-0.6,0-0.8,0.5-1.2,0.8c-1.4,1.6-2.7,3.3-4.2,4.7c-0.4,0.4-0.8,0.7-1.3,1c0.2-0.6,0.7-0.8,1-1.2  c1.7-1.6,3-3.5,4.6-5.2c0.2-0.2,0.3-0.4,0.6-0.6C92.3,54.7,92.2,55.2,92.3,55.3C92.3,55.4,92.3,55.3,92.3,55.3z"></path><path xmlns="http://www.w3.org/2000/svg" d="M85.5,54.9c0.3-0.6,0.8-1.1,1.3-1.5c1.5-1.3,2.8-2.7,4.2-4c0.1-0.1,0.2-0.2,0.4-0.3c0.2,0.1,0.2,0.3,0,0.4  c-1.7,1.6-3.4,3.2-5.1,4.8C86.1,54.5,85.9,54.9,85.5,54.9C85.5,54.8,85.5,54.9,85.5,54.9z"></path><path xmlns="http://www.w3.org/2000/svg" d="M91.2,43.9c-1.8,1.9-4,3.4-5.9,5.2C86.9,47,89.2,45.6,91.2,43.9z"></path><path xmlns="http://www.w3.org/2000/svg" d="M76.2,60.1c-1.2,1.4-3.6,3.2-4.3,3.3C73.2,62,74.8,61.3,76.2,60.1z"></path><path xmlns="http://www.w3.org/2000/svg" d="M87.7,56.6c-1.3,1-2.2,2.1-3.5,3.1C84.8,58.7,86.9,56.9,87.7,56.6z"></path><path xmlns="http://www.w3.org/2000/svg" d="M77.8,62.3c-0.1,0.4-0.4,0.5-0.7,0.7C77.3,62.6,77.3,62.6,77.8,62.3C77.8,62.4,77.8,62.3,77.8,62.3z"></path><path xmlns="http://www.w3.org/2000/svg" d="M25,21.3c-3.2,0.7-6.3,0.9-9.8,0.4c1-0.4,1.8-0.2,2.5-0.2c0.8,0,1.6,0.1,2.4,0c0.8,0,1.6,0,2.4-0.2  C23.4,21.2,24.2,21.1,25,21.3z"></path><path xmlns="http://www.w3.org/2000/svg" d="M7.3,27.4C7.4,27,7.6,27,7.8,27c1,0,2-0.1,3-0.1c0.2,0,0.4,0,0.4,0.3c0,0.2-0.2,0.3-0.4,0.3C9.7,27.4,8.5,27.4,7.3,27.4z"></path><path xmlns="http://www.w3.org/2000/svg" d="M13,19.2c0.8-0.3,1.6,0.1,2.5,0C14.6,19.7,13.8,19.5,13,19.2z"></path><path xmlns="http://www.w3.org/2000/svg" d="M58.8,89.2c-0.1,0.5-0.4,0.7-0.7,0.9C58.1,89.5,58.1,89.5,58.8,89.2z"></path><path xmlns="http://www.w3.org/2000/svg" d="M58.2,86.8c-0.1,0.2-0.2,0.3-0.4,0.3c-0.2,0-0.3-0.1-0.3-0.3c0-0.2,0.2-0.3,0.4-0.3C58.1,86.5,58.2,86.6,58.2,86.8z"></path><path xmlns="http://www.w3.org/2000/svg" d="M53.1,87.6c0,0.2-0.1,0.3-0.3,0.3c-0.1,0-0.2,0-0.2-0.2c0-0.2,0.1-0.3,0.3-0.3C53,87.4,53.1,87.4,53.1,87.6z"></path><path xmlns="http://www.w3.org/2000/svg" d="M63,85.8c0,0.2-0.1,0.3-0.2,0.3c-0.1,0-0.3,0-0.3-0.1c-0.1-0.2,0.1-0.3,0.3-0.4C62.8,85.6,62.9,85.6,63,85.8z"></path><path xmlns="http://www.w3.org/2000/svg" d="M71.2,84.3c0,0.2-0.1,0.3-0.3,0.4c-0.1,0-0.2,0-0.2-0.1c0-0.2,0.1-0.3,0.3-0.4C71,84.1,71.1,84.2,71.2,84.3z"></path><path xmlns="http://www.w3.org/2000/svg" d="M76.9,69.2c-0.2,0.5-0.5,0.8-1.1,0.8C76.2,69.8,76.5,69.5,76.9,69.2z"></path><path xmlns="http://www.w3.org/2000/svg" d="M72.4,76.8C71.7,77.6,71,78.5,70,79C70.6,78,71.5,77.4,72.4,76.8z"></path><path xmlns="http://www.w3.org/2000/svg" d="M72.9,74.5c0.5,0.1,0.7-0.5,1.2-0.5c-0.3,0.6-0.9,0.9-1.4,1.3C72.7,75.1,72.8,74.8,72.9,74.5z"></path><path xmlns="http://www.w3.org/2000/svg" d="M71.2,76.6c0.1-0.4,0.4-0.6,0.7-0.9C71.9,76.3,71.7,76.6,71.2,76.6z"></path><path xmlns="http://www.w3.org/2000/svg" d="M85.9,67.7c-0.4,0.6-0.8,1.1-1.3,1.6C84.8,68.6,85.1,67.9,85.9,67.7z"></path><path xmlns="http://www.w3.org/2000/svg" d="M73.4,67.1c-0.3,0.8-1,1.2-1.7,1.6C72,67.9,72.8,67.6,73.4,67.1z"></path><path xmlns="http://www.w3.org/2000/svg" d="M73.7,79.5c-0.5,0.8-1.1,1.5-2,1.7C72.4,80.7,73.1,80.1,73.7,79.5z"></path><path xmlns="http://www.w3.org/2000/svg" d="M73.6,78.4c0.2,0,0.3,0.1,0.5,0.1c-0.3,0.4-0.7,0.8-1.2,1C73,79,73.6,78.9,73.6,78.4z"></path><path xmlns="http://www.w3.org/2000/svg" d="M83.2,65.3c0.2-0.6,0.6-0.9,1.2-1.1C84.1,64.7,83.6,65,83.2,65.3z"></path><path xmlns="http://www.w3.org/2000/svg" d="M87.5,68.7c-0.8,1.1-1.9,1.9-2.7,3C85.5,70.4,86.4,69.4,87.5,68.7z"></path><path xmlns="http://www.w3.org/2000/svg" d="M84.7,71.7c-0.3,0.5-0.7,1-1.3,1.2C83.7,72.4,84.1,71.9,84.7,71.7z"></path><path xmlns="http://www.w3.org/2000/svg" d="M74.1,76.4c0.4-0.2,0.6-0.6,1.1-0.7C75,76.1,74.6,76.4,74.1,76.4z"></path><path xmlns="http://www.w3.org/2000/svg" d="M84.5,72.9c-0.1,0.1-0.2,0.3-0.1,0.5c-0.4,0-0.5,0.4-1.1,0.7C83.7,73.5,84,73,84.5,72.9z"></path><path xmlns="http://www.w3.org/2000/svg" d="M84.4,73.8c0,0.5-0.5,0.7-0.7,1.1C83.7,74.4,84,74.1,84.4,73.8z"></path></g><g id="SvgjsG1016" featureKey="nameFeature-0" transform="matrix(1.1387187034147397,0,0,1.1387187034147397,52.81158659877029,199.81982951016556)" fill="#f2fcfc"><path d="M21.12 34.24 l2.4 3.44 q-1.68 1.44 -3.9 2.2 t-4.62 0.76 q-3.2 0 -5.96 -1.32 q-2.84 -1.36 -4.48 -3.76 q-1.76 -2.64 -1.76 -6 t1.8 -5.96 q1.64 -2.4 4.52 -3.72 q2.76 -1.28 5.92 -1.28 q2.32 0 4.48 0.66 t3.84 1.94 l-2.76 3.2 q-1.16 -0.8 -2.62 -1.22 t-2.94 -0.42 q-2.08 0 -3.84 0.76 q-1.84 0.76 -2.88 2.24 q-1.16 1.64 -1.16 3.88 t1.16 3.84 q1.08 1.48 2.96 2.28 q1.72 0.72 3.8 0.72 q1.64 0 3.24 -0.58 t2.8 -1.66 z M35.786 32.56 l0 3.28 l13 0 l0 4.16 l-17.08 0 l0 -20.72 l16.32 0 l0 4.12 l-12.24 0 l0 5.04 q1.24 -0.72 3 -1 q1.36 -0.2 3.48 -0.2 l3.04 0 l0 4.12 l-3.04 0 q-2.76 0 -4 0.24 q-1.08 0.2 -2.48 0.96 z M61.65200000000001 32.56 l0 3.28 l13 0 l0 4.16 l-17.08 0 l0 -20.72 l16.32 0 l0 4.12 l-12.24 0 l0 5.04 q1.24 -0.72 3 -1 q1.36 -0.2 3.48 -0.2 l3.04 0 l0 4.12 l-3.04 0 q-2.76 0 -4 0.24 q-1.08 0.2 -2.48 0.96 z M80.83800000000001 19.28 l5.16 0 l12.52 14.4 l0 -14.4 l4.12 0 l0 20.72 l-4.12 0 l-11.52 -13.48 l0 13.48 l-4.12 0 l0 -17.64 z M125.144 33.12 l0.56 0 l-4.04 -7.68 l-4.92 9.48 q1.36 -0.72 3.08 -1.16 q2.48 -0.64 5.32 -0.64 z M119.54400000000001 21.4 l-1.36 -2.6 l4.44 0 l11.2 21.2 l-4.52 0 l-1.64 -3.12 l-2.48 0 q-2.36 0 -5 0.56 q-2.24 0.44 -4.08 1.2 q-1.68 0.64 -2.04 1.12 l-0.12 0.24 l-4.32 0 z M166.37 19.28 l-2.04 3.32 l0 17.4 l-4.52 0 l0 -12.12 l-7.32 9.76 l-7.32 -9.76 l0 12.12 l-4.52 0 l0 -17.4 l-2.04 -3.32 l5.04 0 l8.84 11.72 l8.84 -11.72 l5.04 0 z M178.43599999999998 40 l-4.08 0 l0 -20.72 l4.08 0 l0 20.72 z"></path></g>
			</g>
		</svg>
	